<mxfile host="65bd71144e">
    <diagram id="sZecd5XX31I_sPgKLJMj" name="Page-1">
        <mxGraphModel dx="1417" dy="519" grid="1" gridSize="10" guides="1" tooltips="1" connect="1" arrows="1" fold="1" page="1" pageScale="1" pageWidth="850" pageHeight="1100" math="0" shadow="0">
            <root>
                <mxCell id="0"/>
                <mxCell id="1" parent="0"/>
                <mxCell id="4" value="" style="edgeStyle=none;html=1;" edge="1" parent="1" source="2" target="3">
                    <mxGeometry relative="1" as="geometry"/>
                </mxCell>
                <mxCell id="2" value="int Rec(int num)" style="ellipse;whiteSpace=wrap;html=1;" vertex="1" parent="1">
                    <mxGeometry x="300" y="40" width="120" height="60" as="geometry"/>
                </mxCell>
                <mxCell id="6" value="" style="edgeStyle=none;html=1;" edge="1" parent="1" source="3" target="5">
                    <mxGeometry relative="1" as="geometry"/>
                </mxCell>
                <mxCell id="9" value="" style="edgeStyle=none;html=1;entryX=0;entryY=0.5;entryDx=0;entryDy=0;" edge="1" parent="1" source="3" target="13">
                    <mxGeometry relative="1" as="geometry">
                        <mxPoint x="260" y="420" as="targetPoint"/>
                        <Array as="points">
                            <mxPoint x="210" y="187"/>
                            <mxPoint x="210" y="450"/>
                        </Array>
                    </mxGeometry>
                </mxCell>
                <mxCell id="3" value="if(num == 0)" style="rhombus;whiteSpace=wrap;html=1;" vertex="1" parent="1">
                    <mxGeometry x="302.5" y="150" width="115" height="80" as="geometry"/>
                </mxCell>
                <mxCell id="7" style="edgeStyle=none;html=1;entryX=1;entryY=0.5;entryDx=0;entryDy=0;" edge="1" parent="1" source="5" target="3">
                    <mxGeometry relative="1" as="geometry">
                        <Array as="points">
                            <mxPoint x="490" y="320"/>
                            <mxPoint x="490" y="190"/>
                        </Array>
                    </mxGeometry>
                </mxCell>
                <mxCell id="5" value="return 1;" style="whiteSpace=wrap;html=1;" vertex="1" parent="1">
                    <mxGeometry x="297.5" y="290" width="120" height="60" as="geometry"/>
                </mxCell>
                <mxCell id="15" style="edgeStyle=none;html=1;entryX=1;entryY=0.5;entryDx=0;entryDy=0;" edge="1" parent="1" source="10" target="2">
                    <mxGeometry relative="1" as="geometry">
                        <Array as="points">
                            <mxPoint x="580" y="550"/>
                            <mxPoint x="580" y="70"/>
                        </Array>
                    </mxGeometry>
                </mxCell>
                <mxCell id="10" value="return Rec(num - 1);" style="whiteSpace=wrap;html=1;" vertex="1" parent="1">
                    <mxGeometry x="276" y="525" width="170" height="50" as="geometry"/>
                </mxCell>
                <mxCell id="14" style="edgeStyle=none;html=1;entryX=0.5;entryY=0;entryDx=0;entryDy=0;" edge="1" parent="1" source="13" target="10">
                    <mxGeometry relative="1" as="geometry"/>
                </mxCell>
                <mxCell id="13" value="Console.Write(num + &quot; &quot;);" style="whiteSpace=wrap;html=1;" vertex="1" parent="1">
                    <mxGeometry x="281" y="424" width="160" height="50" as="geometry"/>
                </mxCell>
            </root>
        </mxGraphModel>
    </diagram>
</mxfile>